<svg height="512" viewBox="0 0 192 192" width="512" xmlns="http://www.w3.org/2000/svg"><g id="_06-king" data-name="06-king"><path d="m96 0a96 96 0 1 0 96 96 96.108 96.108 0 0 0 -96-96zm0 176a80 80 0 1 1 80-80 80.091 80.091 0 0 1 -80 80z"/><path d="m96 24a72 72 0 1 0 72 72 72.081 72.081 0 0 0 -72-72zm0 128a56 56 0 1 1 56-56 56.064 56.064 0 0 1 -56 56z"/><path d="m131.83 89.622a8 8 0 0 0 -8.6-.681l-9.77 5.211-11.803-11.809a8 8 0 0 0 -11.314 0l-11.923 11.923-10.842-5.421a8 8 0 0 0 -11.339 9.095l8 32a8 8 0 0 0 7.761 6.06h48a8 8 0 0 0 7.815-6.291l7-32a8 8 0 0 0 -2.985-8.087zm-18.269 30.378h-35.315l-2.266-9.066.442.221a8 8 0 0 0 9.235-1.5l10.343-10.341 10.343 10.343a8 8 0 0 0 9.143 1.544z"/><circle cx="96" cy="72" r="8"/><circle cx="136" cy="80" r="8"/><circle cx="56" cy="80" r="8"/></g></svg>